<?xml version="1.0" standalone="no"?>
<!DOCTYPE svg PUBLIC "-//W3C//DTD SVG 20010904//EN"
 "http://www.w3.org/TR/2001/REC-SVG-20010904/DTD/svg10.dtd">
<svg version="1.0" xmlns="http://www.w3.org/2000/svg"
 width="504.000000pt" height="504.000000pt" viewBox="0 0 504.000000 504.000000"
 preserveAspectRatio="xMidYMid meet">
<metadata>
Created by potrace 1.11, written by Peter Selinger 2001-2013
</metadata>
<g transform="translate(0.000000,504.000000) scale(0.100000,-0.100000)"
fill="#000000" stroke="none">
<path d="M1540 3960 c-583 -583 -1060 -1063 -1060 -1066 0 -3 378 -384 841
-845 462 -461 838 -843 834 -848 -3 -6 -14 -8 -24 -6 -24 4 -31 -11 -78 -160
-20 -66 -38 -122 -39 -125 0 -3 -5 -20 -9 -38 -4 -18 -11 -34 -15 -37 -5 -3
-74 194 -85 245 -7 30 -27 88 -34 100 -13 20 -90 24 -97 5 -5 -13 23 -118 46
-170 5 -11 29 -81 55 -154 25 -74 50 -138 57 -142 19 -12 98 -4 112 12 7 8 44
107 81 222 38 114 72 207 77 207 5 0 88 -79 185 -176 l177 -177 0 -354 c1
-304 3 -356 16 -363 17 -9 390 -10 391 -1 0 3 2 21 5 39 5 45 -12 50 -173 48
l-133 -1 0 327 0 327 1030 1032 c895 895 1029 1033 1018 1047 -22 27 -2108
2112 -2113 2112 -3 0 -482 -477 -1065 -1060z m1075 -542 c13 -71 14 -81 18
-138 3 -30 -1 -82 -8 -115 -7 -33 -11 -62 -9 -64 2 -2 16 11 32 28 l28 31 34
-47 c67 -94 106 -148 113 -159 5 -8 -57 -11 -228 -11 -233 1 -235 1 -229 21 4
12 30 71 59 131 53 110 88 186 140 303 15 34 31 62 35 62 4 0 11 -19 15 -42z"/>
<path d="M799 2496 c-2 -2 -40 -7 -84 -10 -235 -18 -235 -18 -250 -29 -5 -4
-68 -46 -140 -93 -146 -95 -161 -109 -140 -130 7 -8 18 -14 24 -14 6 0 11 -4
11 -9 0 -13 48 -23 64 -14 16 9 70 59 105 97 32 36 203 118 271 130 8 2 23 6
32 10 9 4 22 9 30 10 7 2 26 8 41 14 15 7 39 15 53 18 33 8 41 24 11 24 -13 0
-26 -2 -28 -4z"/>
<path d="M4336 2379 c-53 -33 -78 -83 -110 -210 l-23 -93 -52 3 c-71 4 -131
-26 -170 -86 -31 -46 -35 -66 -32 -133 6 -115 135 -199 252 -163 115 35 167
153 122 280 -24 69 -24 270 0 306 32 49 78 76 145 83 35 3 62 2 62 -3 0 -5 13
-16 29 -26 26 -15 68 -82 63 -99 -1 -5 3 -8 9 -8 5 0 7 -6 3 -12 -6 -10 -4
-10 8 0 13 10 14 19 5 47 -38 124 -201 184 -311 114z m-262 -361 c-22 -43 -19
-41 -43 -28 -12 6 -19 16 -15 21 8 13 67 50 72 45 2 -2 -4 -19 -14 -38z m119
-19 c0 -34 -7 -44 -27 -36 -14 6 -21 69 -9 90 9 15 36 -26 36 -54z m-60 37 c3
-8 4 -22 2 -32 -2 -11 -4 -25 -4 -31 -1 -15 -20 -17 -41 -3 -13 8 -13 14 4 45
21 38 31 43 39 21z m-104 -65 c13 -7 16 -18 13 -40 -4 -32 -29 -47 -61 -36
-16 5 -18 11 -11 35 15 52 25 59 59 41z m287 -26 c10 -38 -2 -57 -33 -53 -19
2 -29 10 -33 28 -10 37 -1 50 31 50 22 0 30 -6 35 -25z m-188 -28 c3 -24 0
-26 -32 -24 -32 2 -36 5 -36 29 0 25 3 28 33 24 26 -3 33 -8 35 -29z m102 3
c0 -26 -4 -30 -27 -30 -38 0 -53 11 -48 35 2 11 4 20 4 20 1 0 17 1 36 2 33 3
35 1 35 -27z m-204 -49 c7 -1 14 -15 16 -32 4 -24 0 -34 -19 -46 -27 -18 -28
-18 -46 28 -18 42 -13 56 16 53 12 -1 27 -3 33 -3z m104 -22 c0 -20 -6 -28
-25 -33 -34 -9 -45 -1 -45 32 0 24 4 27 35 27 31 0 35 -3 35 -26z m106 18 c2
-2 0 -17 -6 -32 -9 -23 -14 -26 -38 -20 -36 9 -45 19 -38 42 5 16 14 19 42 18
19 -2 37 -5 40 -8z m81 4 c14 -1 -2 -58 -23 -80 -21 -22 -53 10 -46 47 6 31
17 41 41 37 9 -2 21 -4 28 -4z m-186 -86 c4 -44 1 -65 -9 -65 -12 0 -44 59
-37 70 10 16 45 12 46 -5z m74 4 c8 -12 -36 -80 -47 -73 -7 5 -8 64 -1 77 6
11 41 9 48 -4z m-130 -39 c21 -40 19 -43 -14 -25 -34 17 -45 31 -36 45 12 19
35 10 50 -20z m191 19 c7 -13 -32 -48 -54 -49 -9 0 -9 7 3 30 16 31 38 39 51
19z"/>
<path d="M479 2317 c-19 -13 -33 -28 -32 -33 1 -5 38 -76 83 -159 79 -144 126
-231 195 -360 109 -204 126 -232 149 -243 23 -10 24 -15 17 -89 0 -7 -6 -13
-12 -13 -6 0 -17 -7 -25 -15 -23 -22 -31 -19 -50 20 -19 40 -21 41 -52 19 -22
-15 -31 -54 -12 -54 19 0 10 -29 -20 -62 -16 -18 -30 -30 -31 -28 -7 46 -21
62 -45 53 -10 -3 -10 -10 1 -31 7 -15 19 -39 26 -54 15 -33 34 -36 51 -8 18
28 25 25 48 -20 24 -46 25 -63 6 -98 -8 -15 -26 -67 -42 -116 -23 -72 -33 -92
-56 -105 -36 -20 -35 -25 5 -36 l32 -10 32 65 c18 36 32 71 33 78 0 7 18 38
41 68 39 53 63 69 120 81 29 5 30 1 13 -74 -5 -28 -4 -33 11 -33 10 0 27 -7
37 -17 15 -13 18 -13 18 -2 0 8 -7 24 -15 36 -12 17 -13 27 -4 50 41 103 27
132 -55 113 -42 -9 -49 -3 -65 63 -12 51 -8 64 28 94 10 9 15 35 17 80 1 38 4
77 7 88 3 12 -13 53 -38 100 -24 44 -60 112 -80 150 -21 39 -45 84 -55 100
-18 31 -95 174 -138 255 -53 103 -90 164 -99 167 -5 2 -25 -7 -44 -20z"/>
<path d="M1030 2036 c-13 -13 -14 -480 -1 -471 5 3 12 1 15 -3 7 -12 54 -3 63
12 4 6 8 45 9 86 2 99 0 96 29 95 37 -2 58 -27 85 -101 24 -64 47 -91 87 -98
30 -6 56 19 48 45 -16 48 -63 146 -79 162 -16 16 -15 19 17 51 82 82 42 206
-73 223 -61 9 -190 9 -200 -1z m177 -80 c14 -4 26 -20 31 -39 14 -53 -18 -84
-88 -83 l-35 1 -1 55 c-2 74 21 90 93 66z"/>
<path d="M1517 1692 c-22 -3 -32 -12 -44 -40 -22 -53 -103 -281 -112 -317 -4
-17 -13 -40 -19 -52 -13 -24 -16 -73 -4 -74 4 0 17 -2 30 -3 34 -4 58 18 71
67 l12 43 88 1 88 1 17 -49 c10 -27 23 -52 30 -56 16 -10 58 -11 78 -1 14 7
15 12 3 50 -22 70 -146 422 -150 426 -5 6 -55 8 -88 4z m77 -268 c5 -18 1 -20
-49 -22 -30 0 -57 2 -59 7 -4 6 23 93 50 161 5 13 41 -76 58 -146z"/>
<path d="M3675 1690 c-64 -5 -73 -15 -61 -64 5 -20 11 -22 66 -21 54 1 60 -1
61 -19 0 -12 0 -96 1 -187 0 -92 3 -172 8 -178 9 -16 65 -17 83 -3 11 9 14 50
15 184 0 95 1 180 1 188 1 13 13 16 58 15 56 0 57 0 64 32 3 17 3 36 0 42 -8
12 -199 19 -296 11z"/>
<path d="M3378 1430 c-31 -3 -59 -8 -63 -11 -3 -4 -6 -109 -6 -234 0 -167 3
-230 12 -236 12 -7 68 -4 77 5 2 3 5 44 6 91 0 50 5 86 11 87 17 3 58 5 103 7
41 1 42 2 42 36 0 42 -19 54 -75 49 -74 -7 -82 -1 -82 61 1 62 -13 55 110 59
29 0 51 7 56 15 10 16 6 50 -7 63 -10 10 -111 14 -184 8z"/>
<path d="M3048 995 c-2 -2 -17 -5 -34 -8 -65 -10 -127 -57 -151 -116 -33 -76
-24 -251 14 -289 7 -7 18 -21 25 -30 39 -52 193 -70 268 -32 71 36 111 100
117 191 10 137 -23 221 -103 259 -36 16 -127 33 -136 25z m84 -100 c49 -20 72
-182 35 -252 -23 -43 -67 -65 -116 -59 -80 10 -105 50 -104 164 2 80 22 128
62 148 24 12 94 12 123 -1z"/>
<path d="M2193 842 c-17 -3 -23 -10 -24 -30 -3 -138 0 -434 5 -439 10 -10 250
-10 264 0 15 12 16 53 0 63 -6 4 -48 8 -92 8 l-81 1 0 60 0 60 66 1 c36 0 71
4 77 8 7 4 12 23 12 42 0 34 0 34 -47 35 -117 2 -108 -3 -108 59 l0 55 85 0
84 0 7 33 c4 20 2 35 -5 39 -11 8 -201 11 -243 5z"/>
</g>
</svg>
